<svg width="42" height="42" viewBox="0 0 42 42" fill="none" xmlns="http://www.w3.org/2000/svg">
<path fill-rule="evenodd" clip-rule="evenodd" d="M30.625 8.75C31.78 8.75 32.76 9.485 33.11 10.5175L36.75 21V35C36.75 35.9625 35.9625 36.75 35 36.75H33.25C32.2875 36.75 31.5 35.9625 31.5 35V33.25H10.5V35C10.5 35.9625 9.7125 36.75 8.75 36.75H7C6.0375 36.75 5.25 35.9625 5.25 35V21L8.89 10.5175C9.2575 9.485 10.22 8.75 11.375 8.75H30.625ZM8.75 25.375C8.75 26.8275 9.9225 28 11.375 28C12.8275 28 14 26.8275 14 25.375C14 23.9225 12.8275 22.75 11.375 22.75C9.9225 22.75 8.75 23.9225 8.75 25.375ZM30.625 28C29.1725 28 28 26.8275 28 25.375C28 23.9225 29.1725 22.75 30.625 22.75C32.0775 22.75 33.25 23.9225 33.25 25.375C33.25 26.8275 32.0775 28 30.625 28ZM11.375 11.375L8.75 19.25H33.25L30.625 11.375H11.375Z" fill="white"/>
</svg>
