<svg width="42" height="42" viewBox="0 0 42 42" fill="none" xmlns="http://www.w3.org/2000/svg">
<path fill-rule="evenodd" clip-rule="evenodd" d="M3.5 21C3.5 11.34 11.34 3.5 21 3.5C30.66 3.5 38.5 11.34 38.5 21C38.5 30.66 30.66 38.5 21 38.5C11.34 38.5 3.5 30.66 3.5 21ZM23.4675 35V31.6575C26.5125 31.08 28.91 29.33 28.9275 26.1275C28.9275 21.7175 25.1475 20.195 21.6125 19.285C18.0775 18.375 16.94 17.4125 16.94 15.9425C16.94 14.2625 18.515 13.0725 21.14 13.0725C23.905 13.0725 24.9375 14.4025 25.025 16.345H28.455C28.35 13.6675 26.7225 11.2 23.4675 10.4125V7H18.795V10.3775C15.785 11.025 13.3525 12.985 13.3525 15.995C13.3525 19.5825 16.3275 21.3675 20.6675 22.4175C24.57 23.345 25.34 24.71 25.34 26.1625C25.34 27.23 24.57 28.945 21.14 28.945C17.9375 28.945 16.6775 27.51 16.5025 25.6725H13.0725C13.265 29.0675 15.8025 30.9925 18.795 31.6225V35H23.4675Z" fill="white"/>
</svg>
